HIERARCHY
ROOT Hips
{
	OFFSET 0.00000 0.00000 0.00000
	CHANNELS 6 Xposition Yposition Zposition Zrotation Yrotation Xrotation 
	JOINT LHipJoint
	{
		OFFSET 0 0 0
		CHANNELS 3 Zrotation Yrotation Xrotation
		JOINT LeftHip
		{
			OFFSET 1.26600 -1.82114 0.91038
			CHANNELS 3 Zrotation Yrotation Xrotation
			JOINT LeftKnee
			{
				OFFSET 2.50076 -6.87080 0.00000
				CHANNELS 3 Zrotation Yrotation Xrotation
				JOINT LeftAnkle
				{
					OFFSET 2.57364 -7.07102 0.00000
					CHANNELS 3 Zrotation Yrotation Xrotation
					JOINT LeftToe
					{
						OFFSET 0.13572 -0.37290 1.97004
						CHANNELS 3 Zrotation Yrotation Xrotation
						End Site
						{
							OFFSET 0.00000 -0.00000 1.01383
						}
					}
				}
			}
		}
	}
	JOINT RHipJoint
	{
		OFFSET 0 0 0
		CHANNELS 3 Zrotation Yrotation Xrotation
		JOINT RightHip
		{
			OFFSET -1.20803 -1.82114 0.91038
			CHANNELS 3 Zrotation Yrotation Xrotation
			JOINT RightKnee
			{
				OFFSET -2.54916 -7.00377 0.00000
				CHANNELS 3 Zrotation Yrotation Xrotation
				JOINT RightAnkle
				{
					OFFSET -2.56374 -7.04382 0.00000
					CHANNELS 3 Zrotation Yrotation Xrotation
					JOINT RightToe
					{
						OFFSET -0.23520 -0.64621 2.09921
						CHANNELS 3 Zrotation Yrotation Xrotation
						End Site
						{
							OFFSET -0.00000 -0.00000 1.10065
						}
					}
				}
			}
		}
	}
	JOINT lowerback
	{
		OFFSET 0 0 0
		CHANNELS 3 Zrotation Yrotation Xrotation
		JOINT Chest
		{
			OFFSET 0.05492 2.10797 -0.12074
			CHANNELS 3 Zrotation Yrotation Xrotation
			JOINT Chest2
			{
				OFFSET 0.04577 2.11592 -0.04483
				CHANNELS 3 Zrotation Yrotation Xrotation
				JOINT lowerneck
				{
					OFFSET 0 0 0
					CHANNELS 3 Zrotation Yrotation Xrotation
					JOINT Neck
					{
						OFFSET -0.10759 1.80167 0.15770
						CHANNELS 3 Zrotation Yrotation Xrotation
						JOINT Head
						{
							OFFSET 0.09237 1.77509 -0.40848
							CHANNELS 3 Zrotation Yrotation Xrotation
							End Site
							{
								OFFSET 0.03805 1.84093 -0.15754
							}
						}
					}
				}
				JOINT LeftCollar
				{
					OFFSET 0 0 0
					CHANNELS 3 Zrotation Yrotation Xrotation
					JOINT LeftShoulder
					{
						OFFSET 3.42372 1.09575 -0.28209
CHANNELS 3 Zrotation Xrotation Yrotation
						JOINT LeftElbow
						{
OFFSET 0 -4.956810 0.000000
CHANNELS 3 Zrotation Xrotation Yrotation
							JOINT LeftWrist
							{
OFFSET 0 -3.409150 0.000000
CHANNELS 3 Zrotation Xrotation Yrotation
								JOINT lhand
								{
									OFFSET 0 0 0
CHANNELS 3 Zrotation Xrotation Yrotation
									JOINT LFingers
									{
OFFSET 0 -0.616400 0.000000
CHANNELS 3 Zrotation Xrotation Yrotation
										End Site
										{
OFFSET 0 -0.496960 0.000000
										}
									}
								}
								JOINT LThumb
								{
OFFSET 0 0.000000 0.000000
CHANNELS 3 Zrotation Xrotation Yrotation
									End Site
									{
OFFSET 0 -0.504550 0.504550
									}
								}
							}
						}
					}
				}
				JOINT RightCollar
				{
					OFFSET 0 0 0
					CHANNELS 3 Zrotation Yrotation Xrotation
					JOINT RightShoulder
					{
						OFFSET -3.24731 1.15872 -0.32221
CHANNELS 3 Zrotation Xrotation Yrotation
						JOINT RightElbow
						{
OFFSET 0 -5.352000 0.000000
CHANNELS 3 Zrotation Xrotation Yrotation
							JOINT RightWrist
							{
OFFSET 0 -3.437210 -0.000000
CHANNELS 3 Zrotation Xrotation Yrotation
								JOINT rhand
								{
									OFFSET 0 0 0
CHANNELS 3 Zrotation Xrotation Yrotation
									JOINT RFingers
									{
OFFSET 0 -0.720090 0.000000
CHANNELS 3 Zrotation Xrotation Yrotation
										End Site
										{
OFFSET 0 -0.580560 0.000000
										}
									}
								}
								JOINT RThumb
								{
OFFSET 0 0.000000 0.000000
CHANNELS 3 Zrotation Xrotation Yrotation
									End Site
									{
OFFSET 0 -0.589420 0.589420
									}
								}
							}
						}
					}
				}
			}
		}
	}
}
MOTION
Frames: 8
Frame Time: 0.008333333333333333
1.100366 17.638126 21.195679 -425.621945 -85.224336 785.586773 0.000000 0.000000 0.000000 -13.035262 -5.804033 -7.160376 10.059527 17.441653 59.685054 -0.453166 -13.232428 11.176597 0.160370 2.563758 7.067332 0.000000 0.000000 0.000000 28.436767 0.234913 -15.665039 -3.118556 -10.884415 31.891268 -0.681559 7.355241 -14.826175 -0.611266 -5.002578 13.916223 3.517372 -0.266111 7.029710 4.733356 -0.286566 3.520814 2.933488 -0.223706 -0.289499 -10.851129 -2.759497 -10.973322 4.668871 -4.900074 37.968012 2.985341 -3.575346 15.614544 0.000000 0.000000 0.000000 1.256554 6.279911 -22.656487 18.690891 -29.032461 4.880159 14.365648 4.799155 -19.229463 0.000000 0.000000 0.000000 -7.125000 0.000000 0.000000 -13.639232 49.292356 1.462323 0.000000 0.000000 0.000000 -7.043444 2.595436 16.048193 -21.974319 -32.947979 -6.571854 -25.090064 -15.986496 -9.497347 0.000000 0.000000 0.000000 7.125000 0.000000 0.000000 1.334950 19.514841 0.811963
0.410725 17.590975 21.146559 -432.247506 -84.868427 791.173207 0.000000 0.000000 0.000000 -11.448059 -7.138318 -14.439255 11.670473 18.247746 64.940253 -0.229023 -9.294389 -0.644377 0.146384 2.324022 6.408008 0.000000 0.000000 0.000000 29.407549 -2.099960 -12.276027 -3.067134 -10.802951 31.618230 -0.907496 8.277767 -17.109146 -0.260783 -3.176612 8.780243 3.902183 0.106000 7.419346 5.117576 0.236846 3.593493 3.082065 0.028401 -0.440130 -11.507986 -2.964968 -10.913593 5.060261 -5.225412 38.196721 3.222584 -3.768473 15.797144 0.000000 0.000000 0.000000 0.912210 6.601974 -23.881321 20.188771 -30.868764 5.628075 14.643891 3.372405 -18.235917 0.000000 0.000000 0.000000 -7.125000 0.000000 0.000000 -13.027116 48.345093 1.092611 0.000000 0.000000 0.000000 -8.085642 2.167544 15.512288 -21.701353 -32.637871 -6.424052 -24.342756 -16.667918 -10.133812 0.000000 0.000000 0.000000 7.125000 0.000000 0.000000 1.894835 18.884365 1.181243
-0.256597 17.484680 21.111254 -437.036668 -83.593420 795.196122 0.000000 0.000000 0.000000 -8.916843 -8.496771 -21.015553 11.052537 17.960256 62.951608 0.015292 -10.670918 -7.716461 0.077495 1.793548 4.935507 0.000000 0.000000 0.000000 31.186884 -1.262398 -8.309631 -3.092493 -10.843261 31.753115 -1.136201 8.381413 -19.091788 -1.119369 -6.719645 18.887899 5.652181 0.323570 7.882477 5.102723 0.662132 3.627582 2.054607 0.248830 -0.642664 -11.446964 -3.143091 -10.914805 5.682948 -5.680336 37.849880 3.403681 -3.848801 15.692618 0.000000 0.000000 0.000000 0.963835 6.435568 -23.324622 21.457283 -32.358243 6.292873 15.508340 2.702650 -18.073085 0.000000 0.000000 0.000000 -7.125000 0.000000 0.000000 -12.161837 48.306379 1.006009 0.000000 0.000000 0.000000 -7.374510 1.707014 14.900853 -21.516367 -32.426137 -6.324568 -24.802739 -16.586993 -9.704798 0.000000 0.000000 0.000000 7.125000 0.000000 0.000000 1.548817 19.312622 0.950302
-0.946009 17.413864 21.100065 -442.237788 -82.511472 799.974663 0.000000 0.000000 0.000000 -7.087827 -8.684853 -25.650493 8.536393 16.498208 54.469919 0.444339 -8.437671 -12.422746 0.064110 -1.612925 -4.437394 0.000000 0.000000 0.000000 32.473137 -4.124402 -5.486020 -2.935105 -10.589129 30.906485 -1.423075 8.378930 -21.350459 -0.236512 -3.101665 8.564220 7.090636 0.483970 8.058627 5.100071 0.980787 3.622407 1.226418 0.413542 -0.708927 -11.283703 -3.240644 -11.105355 5.548935 -5.749292 37.712867 3.299804 -3.856228 15.666564 0.000000 0.000000 0.000000 1.215056 6.114171 -23.048049 21.495627 -32.402249 6.313387 16.334152 2.295706 -17.346311 0.000000 0.000000 0.000000 -7.125000 0.000000 0.000000 -11.154317 47.693412 0.746553 0.000000 0.000000 0.000000 -7.250320 2.084765 15.404910 -21.714068 -32.652300 -6.430857 -23.433486 -17.157639 -11.259555 0.000000 0.000000 0.000000 7.125000 0.000000 0.000000 2.586701 17.745137 1.677451
-1.660939 17.355316 21.066544 -450.235970 -79.549338 807.689147 0.000000 0.000000 0.000000 -3.044925 -9.614458 -28.179758 5.633736 14.061884 43.489738 0.430168 -8.310158 -12.224381 0.005591 0.429748 1.180884 0.000000 0.000000 0.000000 36.242834 -4.075142 -0.964386 -2.430490 -9.710269 28.043675 -1.511127 6.807293 -22.020405 -0.186663 -2.464391 6.811958 9.321840 0.586744 8.021115 5.964435 1.191080 3.776354 0.886298 0.509269 -0.467282 -11.793351 -3.123004 -11.804043 5.853395 -5.426722 37.820927 3.575376 -3.741552 15.884079 0.000000 0.000000 0.000000 0.779129 5.830147 -22.610904 20.886502 -31.695617 5.990195 18.977946 1.654782 -17.976816 0.000000 0.000000 0.000000 -7.125000 0.000000 0.000000 -8.848144 48.716136 0.814966 0.000000 0.000000 0.000000 -7.344134 2.116988 16.679300 -21.614111 -32.538104 -6.377029 -23.242970 -17.310423 -11.138212 0.000000 0.000000 0.000000 7.125000 0.000000 0.000000 2.715184 17.893582 1.751566
-2.402849 17.304623 21.117592 -456.021167 -80.283164 814.008588 0.000000 0.000000 0.000000 -2.682164 -13.379233 -29.460656 3.507315 11.474105 33.896253 0.148823 -11.436292 -10.034827 0.486133 4.379831 12.160008 0.000000 0.000000 0.000000 34.367495 -6.054571 1.615637 -2.145557 -9.162580 26.305542 -1.437457 9.967389 -21.556404 -0.176571 -2.692373 7.424334 8.381687 0.762189 7.281719 5.429485 1.331939 3.530339 0.838502 0.596119 -0.329441 -10.836651 -3.059447 -12.017512 5.468782 -5.405713 37.678871 3.232774 -3.638080 15.802538 0.000000 0.000000 0.000000 0.857354 6.372467 -21.322644 19.949217 -30.581164 5.505472 15.056212 3.421946 -19.166557 0.000000 0.000000 0.000000 -7.125000 0.000000 0.000000 -12.964222 49.331904 1.405469 0.000000 0.000000 0.000000 -6.632546 2.796721 16.414226 -21.406235 -32.299415 -6.265572 -23.451978 -16.560161 -10.589705 0.000000 0.000000 0.000000 7.125000 0.000000 0.000000 2.545054 18.467793 1.609851
-3.140843 17.213841 21.192992 -466.438352 -80.032387 825.054960 0.000000 0.000000 0.000000 -2.331003 -12.898814 -31.067369 2.873487 10.487276 30.569676 -0.083840 -14.334080 -9.056827 0.013153 0.677362 1.861669 0.000000 0.000000 0.000000 34.148358 -4.440848 4.661344 -2.175749 -9.223004 26.495251 -1.641405 8.802003 -22.953724 -0.009176 -0.555086 1.525664 8.314467 1.130451 6.658376 4.927556 1.802427 3.192759 0.328453 0.844686 -0.302836 -10.824078 -2.943082 -12.545657 6.042420 -5.430894 37.987599 3.480421 -3.583838 16.109115 0.000000 0.000000 0.000000 1.021188 6.743946 -21.267526 18.118559 -28.308619 4.605400 15.933060 3.783551 -18.631642 0.000000 0.000000 0.000000 -7.125000 0.000000 0.000000 -11.947734 48.928293 1.172584 0.000000 0.000000 0.000000 -5.629413 3.367921 14.787855 -20.468827 -31.202970 -5.772254 -22.839393 -17.660158 -12.720343 0.000000 0.000000 0.000000 7.125000 0.000000 0.000000 3.068946 16.229874 2.091952
-3.891208 17.051457 21.310785 -475.494182 -77.033128 833.848825 0.000000 0.000000 0.000000 0.518610 -12.875423 -28.750099 3.188621 10.994333 32.260811 -0.450364 -15.899030 -5.578904 0.216488 2.994643 8.263951 0.000000 0.000000 0.000000 36.281850 -1.716754 8.091201 -2.439200 -9.726500 28.095519 -1.475535 8.564994 -21.749133 -0.020454 -0.923089 2.537301 9.908040 1.446841 6.988320 5.477474 2.324675 3.094181 -0.013133 1.081978 -0.503497 -10.175229 -2.808990 -12.987004 5.429095 -5.136378 38.033295 3.138066 -3.447795 16.156011 0.000000 0.000000 0.000000 0.017026 7.507990 -18.941964 16.202691 -25.794718 3.733775 14.675276 4.428900 -17.475835 0.000000 0.000000 0.000000 -7.125000 0.000000 0.000000 -12.743504 47.592839 0.827985 0.000000 0.000000 0.000000 -5.193075 4.313534 13.436766 -19.612513 -30.172697 -5.335268 -22.107100 -16.360120 -11.312924 0.000000 0.000000 0.000000 7.125000 0.000000 0.000000 3.519593 17.808981 2.278787
